<?xml version="1.0" encoding="utf-8" ?><svg xmlns="http://www.w3.org/2000/svg" xmlns:xlink="http://www.w3.org/1999/xlink" width="512" height="512" viewBox="0 0 512 512"><path d="M183.819 261.18C170.891 267.225 151.384 267.966 137.743 263.344C124.015 258.693 88.8961 236.767 75.4434 227.321C30.1481 191.849 51.7794 119.131 111.603 112.237C133.09 110.778 144.319 117.515 161.294 127.978C174.491 136.113 196.829 147.528 208.293 156.759C226.766 171.635 229.024 193.618 223.099 214.932C229.996 220.129 236.545 221.249 238.581 231.106C240.849 242.086 234.298 251.585 223.472 253.946C215.805 255.618 210.012 251.317 203.978 247.327C198.31 253.128 191.234 257.916 183.819 261.18ZM112.472 122.764C61.4566 129.851 43.8496 190.317 83.2769 219.949C93.1043 227.335 131.43 249.86 140.747 253.044C162.661 260.533 177.657 253.181 195.012 241.783C191.819 239.106 184.793 235.185 181.017 232.675C153.398 248.13 136.171 233.466 112.895 219.226L101.437 212.222C98.9968 210.741 95.4227 208.677 93.16 206.964C66.1537 186.258 79.0421 143.245 112.473 139.307C128.253 137.449 135.222 143.257 147.757 150.96L182.011 171.74C194.689 179.432 200.166 184.155 199.719 200.682L213.857 208.96C219.74 184.72 210.494 170.195 190.981 158.359L152.822 135.295C139.764 127.371 128.503 121.025 112.472 122.764ZM114.914 149.84C98.4325 152.042 87.3439 165.043 89.6577 181.813C91.6354 196.147 103.254 200.693 114.074 207.391L132.846 219.005C145.8 226.842 155.135 231.676 170.736 226.116C168.531 224.657 166.495 223.325 164.216 221.971C149.415 213.227 158.211 191.361 172.349 188.524C180.435 186.901 182.936 189.78 189.13 193.383C184.858 183.279 179.241 182.735 169.903 176.978L140.06 158.78C132.033 153.986 124.966 148.4 114.914 149.84ZM175.457 198.532C170.764 199.579 163.811 208.158 168.362 211.934C170.469 213.682 174.169 215.785 176.6 217.304L215.677 242.13C217.301 243.168 218.934 243.289 220.791 243.438C229.012 242.294 231.013 232.797 224.346 228.363C221.156 226.234 217.821 224.218 214.559 222.186L196.076 210.735C192.292 208.393 179.034 198.739 175.457 198.532Z"/><path d="M321.367 152.203L313.678 125.228C319.62 125.138 325.81 125.228 331.772 125.228C330.747 129.341 326.316 139.546 324.503 144.004C323.352 146.815 322.377 149.339 321.367 152.203Z"/><path d="M261.91 165.25C265.786 161.324 269.96 157.106 274.082 153.442C275.286 154.142 288.071 179.527 290.279 183.372C287.894 182.041 285.003 180.136 282.645 178.664C275.844 174.298 268.556 169.784 261.91 165.25Z"/><path d="M350.335 195.221C356.857 187.941 364.774 177.361 371.401 170.68C372.635 171.922 379.183 182.975 380.258 185.014C375.643 186.812 361.171 191.062 358.374 193.383C354.714 193.807 353.897 194.02 350.335 195.221Z"/><path d="M305.473 248.095C317.062 237.369 330.558 231.783 346.171 230.262C365.4 229.153 377.237 235.614 392.659 244.942L421.921 262.52C426.057 264.975 430.412 267.388 434.236 270.282C495.93 317 438.613 411.482 370.633 384.372C366.525 382.733 362.376 379.853 358.374 377.753C343.434 366.455 323.976 358.399 308.552 346.891C287.864 331.456 283.351 305.837 288.899 282.091C283.054 278.833 261.374 266.718 257.586 262.731C245.498 250.012 256.481 228.839 273.886 230.906C281.777 231.843 297.571 243.947 305.473 248.095ZM346.171 240.848C334.322 242.085 324.02 246.302 314.847 253.991L329.359 262.319C352.116 250.531 364.134 259.184 383.632 270.953L402.633 282.257C412.402 288.141 419.776 290.439 426.446 300.63C446.876 331.849 416.369 369.538 381.504 358.927C375.971 357.243 369.421 352.688 364.288 349.593L343.171 336.8C324.482 325.407 313.952 320.885 313.678 297.221C308.797 294.408 303.75 291.587 299.08 288.452L298.582 288.356C298.119 289.081 298.07 290.621 297.9 291.518C294.325 310.328 303.276 331.924 319.924 341.711C336.968 351.731 355.479 364.139 372.792 373.331C395.269 385.267 428.839 373.085 441.272 351.752C459.916 322.212 447.527 290.275 419.444 273.122L388.98 254.805C376.502 247.421 361.527 238.191 346.171 240.848ZM269.883 241.783C263.77 244.021 259.969 251.459 266.013 255.9C269.742 258.641 274.953 261.266 279.029 263.743L309.457 282.044C314.934 285.276 322.939 292.364 329.359 291.406C336.708 288.519 338.941 281.061 331.923 276.34C328.031 273.722 323.744 271.538 319.696 269.133L293.066 253.32C287.255 249.909 276.239 241.352 269.883 241.783ZM346.171 267.594C343.968 267.874 342.193 268.263 340.031 268.82C353.483 278.084 347.934 303.078 323.122 302.244C326.756 319.477 343.198 324.417 357.422 333.021L372.58 342.215C379.388 346.315 384.276 349.702 392.46 350.226C423.341 349.534 432.016 312.297 409.198 298.477C394.426 289.531 379.291 281 364.548 271.984C359.133 268.693 352.543 266.855 346.171 267.594Z"/><path d="M192.767 323.992C191.407 319.199 190.196 312.888 189.13 307.911C198.765 307.553 210.952 310.097 220.791 309.329C217.53 311.602 214.661 312.952 211.121 314.779C205.633 317.623 198.307 321.625 192.767 323.992Z"/><path d="M216.577 368.193C223.496 362.624 233.914 355.884 241.373 351.254C241.407 351.768 231.223 376.932 230.001 379.967C227.603 378.044 225.416 376.222 223.099 374.203L216.577 368.193Z"/><path d="M284.696 398.609C284.066 388.372 285.782 376.938 285.191 366.605C287.651 368.304 300.712 390.506 302.815 394.487L299.08 395.334C294.271 396.356 289.485 397.492 284.696 398.609Z"/></svg>